<?xml version="1.0" encoding="UTF-8"?>
<svg version="1.1" xmlns="http://www.w3.org/2000/svg" width="200" height="200">
<path d="M0 0 C1.28453064 0.2906282 2.56906128 0.58125641 3.89251709 0.88069153 C5.2660199 1.20213624 6.63941011 1.52406243 8.01269531 1.84643555 C9.44503038 2.17615983 10.8775079 2.50526586 12.31011963 2.83378601 C15.29695842 3.52104636 18.28207629 4.21522845 21.26611328 4.91455078 C25.08173001 5.80823818 28.9009753 6.68512487 32.7216301 7.55698872 C35.67429078 8.23258746 38.6249411 8.91664635 41.57505035 9.60329247 C42.98261826 9.92992071 44.39077257 10.25403294 45.7995224 10.57552528 C47.76806253 11.02618479 49.73371461 11.48940341 51.69921875 11.953125 C52.81568787 12.21293655 53.93215698 12.47274811 55.0824585 12.74043274 C58.1687356 13.69474664 60.50706189 14.73060393 63.09082031 16.6706543 C63.40332031 19.8581543 63.40332031 19.8581543 63.09082031 22.6706543 C57.43777006 25.36580717 51.96948963 26.70137618 45.83203125 27.86303711 C44.82455338 28.06015289 43.8170755 28.25726868 42.77906799 28.46035767 C39.46268385 29.10661445 36.14414984 29.74086508 32.82519531 30.3737793 C30.50737419 30.82002345 28.18960561 31.26654052 25.87188721 31.71331787 C21.01770724 32.64681702 16.16233413 33.57380024 11.30615234 34.49682617 C5.10179958 35.67710849 -1.09828556 36.87835515 -7.29751968 38.08519363 C-12.08270503 39.01345042 -16.87044085 39.9279724 -21.65898895 40.83870697 C-23.94510239 41.27567837 -26.23030778 41.71742992 -28.514534 42.16416168 C-31.71808499 42.78905999 -34.92473531 43.39468246 -38.1328125 43.99584961 C-39.52973579 44.27469498 -39.52973579 44.27469498 -40.95487976 44.55917358 C-49.63437654 46.14731652 -57.73251845 45.38277354 -66.29858398 43.36376953 C-67.41891525 43.10357529 -68.53924652 42.84338104 -69.69352722 42.57530212 C-70.86168472 42.29610428 -72.02984222 42.01690643 -73.23339844 41.72924805 C-74.46081253 41.44211441 -75.68822662 41.15498077 -76.95283508 40.85914612 C-80.17783382 40.10331856 -83.40123612 39.34113003 -86.6239624 38.57568359 C-89.92803678 37.79262584 -93.23412396 37.01816238 -96.54003906 36.24291992 C-102.99828476 34.72664378 -109.45429102 33.20115565 -115.90917969 31.6706543 C-115.90917969 38.6006543 -115.90917969 45.5306543 -115.90917969 52.6706543 C-113.26917969 53.0006543 -110.62917969 53.3306543 -107.90917969 53.6706543 C-106.04532712 54.04214114 -104.18732721 54.44501347 -102.33862305 54.88574219 C-101.32074203 55.12591568 -100.30286102 55.36608917 -99.25413513 55.61354065 C-98.17994827 55.87086472 -97.10576141 56.12818878 -95.99902344 56.39331055 C-93.68722026 56.93712501 -91.37536987 57.48073875 -89.06347656 58.02416992 C-85.4464815 58.87940908 -81.83010203 59.73710454 -78.21459961 60.59863281 C-74.70679724 61.43278064 -71.19684666 62.25734594 -67.68652344 63.08081055 C-66.61031235 63.34015884 -65.53410126 63.59950714 -64.42527771 63.86671448 C-63.41054886 64.10373581 -62.39582001 64.34075714 -61.3503418 64.58496094 C-60.4662413 64.79512344 -59.58214081 65.00528595 -58.67124939 65.22181702 C-51.68209443 66.35755711 -45.32463035 65.16375283 -38.47924805 63.80297852 C-37.45398514 63.60469452 -36.42872223 63.40641052 -35.37239075 63.20211792 C-33.15496104 62.77267713 -30.93807816 62.34040512 -28.72169304 61.90560532 C-25.21334092 61.21835192 -21.70326749 60.54065745 -18.19252014 59.86575317 C-8.21403274 57.94628521 1.76190185 56.013927 11.73461914 54.06469727 C17.84158454 52.87174918 23.95124017 51.69353407 30.06283379 50.52453995 C32.38953778 50.0764338 34.71515701 49.62265662 37.03962898 49.16311264 C40.28734888 48.52140835 43.53815191 47.89843842 46.7902832 47.27954102 C48.22819717 46.98823303 48.22819717 46.98823303 49.69515991 46.69104004 C54.78232858 45.7448966 58.22905888 45.39979419 63.09082031 47.6706543 C63.27832031 51.0456543 63.27832031 51.0456543 63.09082031 54.6706543 C60.2216046 56.58346477 58.84384507 57.08783559 55.56990051 57.71513367 C54.18009979 57.98647125 54.18009979 57.98647125 52.76222229 58.26329041 C51.7476445 58.45403641 50.73306671 58.64478241 49.68774414 58.84130859 C48.61751007 59.04803192 47.547276 59.25475525 46.4446106 59.46774292 C42.89704469 60.15074387 39.34760179 60.82332355 35.79785156 61.49487305 C33.33260816 61.96498007 30.8674141 62.43534592 28.40226746 62.90596008 C23.22896634 63.89169124 18.05465149 64.87193551 12.87963867 65.84863281 C6.910246 66.97542104 0.94365417 68.11623549 -5.02176493 69.26385754 C-10.77074742 70.36917566 -16.52223642 71.46094009 -22.27477455 72.54758644 C-24.71669081 73.01061129 -27.15787409 73.47751943 -29.59828758 73.9484005 C-33.01649334 74.60659587 -36.43727674 75.24926673 -39.85913086 75.88818359 C-40.86358749 76.08500229 -41.86804413 76.28182098 -42.90293884 76.48460388 C-51.12093047 77.99108611 -57.5869588 77.07767146 -65.73657227 75.21191406 C-66.36690369 75.06867706 -66.99723511 74.92544006 -67.64666748 74.77786255 C-69.69997816 74.31002813 -71.7518863 73.83636661 -73.80371094 73.36206055 C-75.24236726 73.0318076 -76.68106321 72.70172727 -78.11979675 72.37181091 C-81.12013465 71.68273982 -84.11973961 70.99057931 -87.11889648 70.29638672 C-90.96181249 69.40731275 -94.8068079 68.52761647 -98.65244007 67.65037632 C-101.61737912 66.97267501 -104.58098078 66.28926755 -107.54422569 65.60420036 C-108.96195515 65.27732009 -110.3801382 64.95240061 -111.79877663 64.62948799 C-113.77679809 64.1785143 -115.7528323 63.71885084 -117.72875977 63.25878906 C-119.41464958 62.87026512 -119.41464958 62.87026512 -121.13459778 62.47389221 C-123.90917969 61.6706543 -123.90917969 61.6706543 -126.90917969 59.6706543 C-128.68070292 54.35608459 -128.13478258 48.61317818 -128.14941406 43.04711914 C-128.15911497 40.81057476 -128.1901474 38.57495168 -128.22167969 36.33862305 C-128.22821084 34.91024307 -128.23346087 33.48185654 -128.23730469 32.0534668 C-128.24665039 30.75812012 -128.25599609 29.46277344 -128.265625 28.12817383 C-127.86301146 24.22282245 -127.64584976 22.50796525 -124.90917969 19.6706543 C-121.66226074 18.44085097 -118.32610037 17.93902944 -114.90917969 17.37768555 C-112.62779401 16.96257763 -110.34655524 16.54666193 -108.06542969 16.13012695 C-106.78023437 15.90262756 -105.49503906 15.67512817 -104.17089844 15.44073486 C-99.48018987 14.6024959 -94.80412542 13.69287407 -90.12792969 12.77758789 C-88.36930358 12.43350122 -86.61067727 12.08941555 -84.85205078 11.74533081 C-83.95895203 11.57059109 -83.06585327 11.39585136 -82.14569092 11.2158165 C-76.58875311 10.13257151 -71.02814016 9.06840808 -65.46792603 8.00213432 C-60.67886466 7.08343919 -55.89046996 6.16155156 -51.10351562 5.23193359 C-46.3947042 4.3175582 -41.68438879 3.41135033 -36.97290039 2.51087379 C-35.19907005 2.1704525 -33.42577867 1.82720913 -31.65307617 1.48096275 C-29.18518441 0.99950462 -26.71548866 0.5286026 -24.24511719 0.06005859 C-23.17437454 -0.15257629 -23.17437454 -0.15257629 -22.08200073 -0.36950684 C-14.51443259 -1.78102683 -7.52781194 -1.73075757 0 0 Z " fill="#000000" transform="translate(131.9091796875,23.329345703125)"/>
<path d="M0 0 C2 2 2 2 2.25 5 C2 8 2 8 0 10 C-1.96172142 10.57964706 -1.96172142 10.57964706 -4.41171265 11.0512085 C-5.80340164 11.32471382 -5.80340164 11.32471382 -7.22320557 11.60374451 C-8.24444519 11.79606155 -9.26568481 11.9883786 -10.31787109 12.18652344 C-11.39128754 12.39485306 -12.46470398 12.60318268 -13.57064819 12.81782532 C-17.1366323 13.50705675 -20.70479202 14.18406708 -24.2734375 14.859375 C-26.75291744 15.33203712 -29.23237887 15.80479642 -31.71182251 16.27764893 C-36.92119855 17.26867613 -42.13184887 18.25267566 -47.34326172 19.23291016 C-53.3438247 20.36186201 -59.34005977 21.51200875 -65.33468187 22.67205215 C-71.11808207 23.7899902 -76.9056505 24.88496004 -82.69496536 25.97180939 C-85.14808911 26.43552223 -87.5999459 26.9059926 -90.05042648 27.38347626 C-93.49297492 28.05229311 -96.93951798 28.69464317 -100.38818359 29.33105469 C-101.38918091 29.53146866 -102.39017822 29.73188263 -103.42150879 29.93836975 C-110.69903514 31.24055379 -116.81041636 30.58990616 -124 29 C-125.14019592 28.7702951 -126.28039185 28.54059021 -127.45513916 28.30392456 C-128.37003113 28.09518707 -129.2849231 27.88644958 -130.22753906 27.67138672 C-131.28773254 27.43128876 -132.34792603 27.1911908 -133.44024658 26.94381714 C-134.53762146 26.69165436 -135.63499634 26.43949158 -136.765625 26.1796875 C-137.92503601 25.91616486 -139.08444702 25.65264221 -140.2789917 25.38113403 C-143.93674045 24.5489911 -147.59337857 23.71208117 -151.25 22.875 C-153.74862566 22.30567238 -156.24732295 21.73665903 -158.74609375 21.16796875 C-164.8315626 19.78227454 -170.91604102 18.39230772 -177 17 C-177 23.93 -177 30.86 -177 38 C-174.36 38.33 -171.72 38.66 -169 39 C-167.32749328 39.32547361 -165.65892672 39.67368905 -164 40.0625 C-162.68 40.371875 -161.36 40.68125 -160 41 C-160 44.63 -160 48.26 -160 52 C-165.71725684 51.37194347 -171.21866606 50.39060356 -176.8125 49.0625 C-177.93688477 48.80823242 -177.93688477 48.80823242 -179.08398438 48.54882812 C-182.53772678 47.73709063 -185.01947383 46.98701745 -188 45 C-189.77152324 39.68543029 -189.22560289 33.94252388 -189.24023438 28.37646484 C-189.24993528 26.13992047 -189.28096772 23.90429739 -189.3125 21.66796875 C-189.31903116 20.23958877 -189.32428119 18.81120224 -189.328125 17.3828125 C-189.3374707 16.08746582 -189.34681641 14.79211914 -189.35644531 13.45751953 C-188.98113554 9.81701471 -188.12757345 7.93155747 -186 5 C-178.00378959 5.53715012 -170.40866396 7.11639085 -162.6171875 8.94140625 C-160.70060319 9.38016791 -158.78401652 9.81891953 -156.86729622 10.25708675 C-152.18755584 11.32906622 -147.5109798 12.41475108 -142.83447266 13.50073242 C-140.19475071 14.11325141 -137.55401949 14.7210595 -134.91213989 15.32420349 C-132.43730862 15.88973905 -129.96412056 16.46252907 -127.4928894 17.04359436 C-126.36456696 17.30063644 -125.23624451 17.55767853 -124.07373047 17.82250977 C-123.09129364 18.05043716 -122.10885681 18.27836456 -121.09664917 18.51319885 C-113.65669757 19.68277822 -106.95758928 18.6473443 -99.64013672 17.25585938 C-98.63423492 17.07054153 -97.62833313 16.88522369 -96.59194946 16.69429016 C-94.41976905 16.2931287 -92.2481936 15.88868034 -90.07717514 15.48127747 C-86.63995307 14.83629396 -83.20122424 14.19997481 -79.76199341 13.5657959 C-73.70354707 12.44719554 -67.64653684 11.32102732 -61.58996582 10.19232178 C-51.88958294 8.38455647 -42.18813569 6.58268011 -32.48468399 4.79145813 C-29.09925972 4.16450442 -25.71512918 3.53088095 -22.33102417 2.89685059 C-20.25442811 2.5123226 -18.17778084 2.12807107 -16.10107422 1.74414062 C-15.16273743 1.56647659 -14.22440063 1.38881256 -13.25762939 1.20576477 C-4.42058799 -0.41483079 -4.42058799 -0.41483079 0 0 Z " fill="#000000" transform="translate(193,89)"/>
<path d="M0 0 C0.1875 3.375 0.1875 3.375 0 7 C-2.8551759 8.9034506 -4.22249826 9.41426812 -7.47622681 10.04447937 C-8.39290131 10.22537109 -9.30957581 10.40626282 -10.25402832 10.59263611 C-11.25768433 10.78338211 -12.26134033 10.97412811 -13.29541016 11.1706543 C-14.88372147 11.48073929 -14.88372147 11.48073929 -16.50411987 11.79708862 C-20.01439367 12.48012133 -23.52656433 13.15272506 -27.0390625 13.82421875 C-29.47948457 14.2943567 -31.91986281 14.76472215 -34.36019897 15.23530579 C-39.48221033 16.22108356 -44.60526709 17.20121086 -49.72900391 18.17797852 C-56.28539791 19.42797328 -62.8377962 20.69770392 -69.38959694 21.97157574 C-74.43230035 22.94914428 -79.47724831 23.91470634 -84.52289963 24.87693214 C-86.93894457 25.33960735 -89.35418468 25.80650645 -91.76857376 26.2777462 C-95.15286791 26.93687726 -98.53995231 27.57919929 -101.92822266 28.2175293 C-103.41548859 28.51275734 -103.41548859 28.51275734 -104.93280029 28.81394958 C-113.54509432 30.40461761 -120.70627208 29.64693444 -129 27 C-129 23.37 -129 19.74 -129 16 C-128.20582169 16.19368164 -127.41164337 16.38736328 -126.59339905 16.58691406 C-113.64264267 19.07098951 -101.8890296 16.30863408 -89.12109375 13.75 C-86.73599381 13.29147076 -84.35040872 12.83545861 -81.96437073 12.38183594 C-75.72403824 11.19057201 -69.48892398 9.97415722 -63.25506592 8.74951172 C-53.24850165 6.78489936 -43.2373342 4.84509502 -33.22084236 2.9317627 C-29.73157026 2.2592469 -26.24651382 1.56740664 -22.76133728 0.87402344 C-20.62676814 0.46210889 -18.49205576 0.05093565 -16.35717773 -0.359375 C-15.3924353 -0.55672241 -14.42769287 -0.75406982 -13.43371582 -0.95739746 C-8.33281701 -1.91698072 -4.87604395 -2.28506944 0 0 Z " fill="#000000" transform="translate(195,122)"/>
<path d="M0 0 C20.4 3.4 20.4 3.4 22 5 C22.09319449 6.5348297 22.117458 8.07392082 22.11352539 9.61157227 C22.11344986 10.59251358 22.11337433 11.5734549 22.11329651 12.5841217 C22.10813522 13.6507756 22.10297394 14.7174295 22.09765625 15.81640625 C22.0962413 16.9025975 22.09482635 17.98878876 22.09336853 19.1078949 C22.08775048 22.59279075 22.07519492 26.07762342 22.0625 29.5625 C22.05748733 31.91861887 22.05292402 34.27473874 22.04882812 36.63085938 C22.03777519 42.42059464 22.02101951 48.21029281 22 54 C17.01962907 51.67280849 14.52267209 48.20010904 11 44 C7.37 45.65 3.74 47.3 0 49 C0 32.83 0 16.66 0 0 Z " fill="#000000" transform="translate(38,124)"/>
</svg>
