<?xml version="1.0" encoding="UTF-8"?>
<svg xmlns="http://www.w3.org/2000/svg" id="Layer_1" data-name="Layer 1" viewBox="0 0 24 24">
  <path d="m21.891,11.06l.663-.663c.566-.567.879-1.32.879-2.122s-.312-1.555-.879-2.121l-.98-.983c1.487-1.019,1.597-1.111,1.647-1.154.456-.395.73-.944.773-1.545.043-.601-.151-1.184-.544-1.636-.428-.501-1.014-.794-1.649-.825-.64-.039-1.229.197-1.673.625-.049.046-.057.055-1.278,1.815l-.906-.907c-1.171-1.171-3.074-1.168-4.243,0l-.68.68c-.21.21-.315.501-.288.798.027.298.185.566.432.735,1.188.812,1.38.958,1.405.979.252.218.404.522.428.854s-.084.655-.282.884c-.628.641-1.312.697-1.833.202-.054-.069-.528-.719-1.13-1.546-.172-.238-.439-.387-.733-.41-.289-.023-.578.083-.784.289l-5.262,5.218c-.74-1.131-.903-1.36-.974-1.444-.412-.475-1.002-.76-1.618-.782-.628-.033-1.223.223-1.683.683-.893.857-.921,2.281-.062,3.175.038.04.049.051,1.519,1.148l-.595.592c-.569.566-.883,1.32-.884,2.123s.311,1.558.879,2.125l.824.823c.203.203.483.309.769.291.288-.018.555-.159.731-.388.529-.685.948-1.226.964-1.251.483-.465,1.346-.42,1.826.079.224.258.344.607.329.957-.015.351-.159.662-.401.872-.095.081-.574.436-1.162.87-.235.174-.383.44-.405.732-.021.291.084.575.29.781l.847.847c1.167,1.167,3.068,1.169,4.237.006l.911-.902c1.275,1.764,1.28,1.768,1.325,1.81.422.406.973.627,1.557.627.015,0,.03,0,.046,0,.601-.012,1.16-.257,1.562-.677.465-.447.711-1.039.694-1.667-.017-.634-.301-1.236-.784-1.655-.077-.065-.33-.251-1.643-1.16l4.969-4.928c1.05,1.409,1.065,1.424,1.104,1.461.933.894,2.213.832,3.306-.197.394-.454.587-1.034.544-1.634-.043-.599-.316-1.145-.773-1.541-.07-.06-.279-.214-1.33-.941Zm-8.521,7.069c-.213.209-.32.5-.294.799.026.299.183.568.43.738,1.248.861,1.516,1.058,1.56,1.093.268.232.426.568.436.922.006.243-.057.601-.402.935-.231.24-.542.376-.876.383-.304.018-.649-.117-.847-.301-.061-.079-.594-.814-1.25-1.722-.172-.238-.439-.388-.732-.412-.027-.002-.054-.003-.081-.003-.263,0-.516.103-.704.29l-.909.904c-.779.776-2.046.775-2.825-.004l-.845-.849c.614-.453,1.113-.826,1.218-.915.457-.396.723-.96.75-1.588.026-.603-.183-1.206-.589-1.674-.883-.917-2.375-.975-3.258-.125-.036.035-.045.043-1.063,1.362l-.824-.824c-.378-.378-.586-.882-.586-1.417,0-.535.21-1.038.589-1.415l.595-.592c.206-.205.312-.489.292-.779-.021-.291-.167-.558-.4-.731-.737-.551-1.367-1.022-1.396-1.041-.476-.495-.46-1.285.042-1.767.344-.344.708-.4.947-.397.34.012.667.171.892.431.039.048.208.286.898,1.342.165.253.431.417.731.449.297.031.594-.07.808-.281l2.296-2.261,2.251,2.252c-1.57,1.167-1.58,1.177-1.618,1.218-.419.436-.633,1.024-.601,1.655.03.604.293,1.187.741,1.616.957.829,2.443.75,3.25-.18.04-.047.146-.174,1.056-1.483l2.36,2.361-2.041,2.009Zm9.36-3.646c-.666.624-1.355.684-1.854.209-.057-.07-.503-.667-1.034-1.379-.174-.233-.44-.378-.73-.399-.301-.025-.574.085-.779.29l-2.212,2.212-2.363-2.365c-.211-.21-.501-.314-.797-.288-.296.027-.563.182-.732.426-.795,1.146-.963,1.366-.994,1.402-.439.506-1.298.541-1.816.092-.247-.237-.398-.575-.416-.927-.018-.353.097-.677.282-.874.077-.062.757-.568,1.536-1.146.233-.174.379-.44.401-.731.021-.29-.084-.574-.29-.779l-2.249-2.249,2.261-2.258c1.146,1.576,1.158,1.588,1.202,1.631.959.919,2.279.851,3.306-.197.394-.454.587-1.034.544-1.633-.042-.599-.316-1.146-.774-1.543-.045-.038-.149-.127-1.492-1.046l.68-.681c.779-.778,2.049-.78,2.829,0l.906.908c.21.209.504.31.796.288.297-.027.564-.182.734-.427.616-.89,1.136-1.636,1.149-1.665.246-.237.58-.364.93-.346.357.018.69.187.94.479.22.253.328.578.305.913-.024.335-.177.641-.426.855-.04.034-.274.207-1.563,1.09-.246.169-.403.438-.431.735-.027.296.077.587.287.798l.982.982c.378.378.586.88.586,1.414s-.208,1.037-.586,1.415l-.663.663c-.21.21-.315.5-.288.797.027.297.184.565.429.734.987.682,1.206.844,1.245.875.252.218.403.521.428.854.023.333-.084.655-.268.87Z"/>
</svg>
